<?xml version="1.0" encoding="UTF-8"?>
<!DOCTYPE svg PUBLIC "-//W3C//DTD SVG 1.1//EN" "http://www.w3.org/Graphics/SVG/1.1/DTD/svg11.dtd">
<!-- Creator: CorelDRAW 2017 -->
<svg xmlns="http://www.w3.org/2000/svg" xml:space="preserve" width="210mm" height="297mm" version="1.1" style="shape-rendering:geometricPrecision; text-rendering:geometricPrecision; image-rendering:optimizeQuality; fill-rule:evenodd; clip-rule:evenodd"
viewBox="0 0 21000 29700"
 xmlns:xlink="http://www.w3.org/1999/xlink">
 <defs>
  <style type="text/css">
   <![CDATA[
    .fil0 {fill:white}
    .fil1 {fill:white}
   ]]>
  </style>
 </defs>
 <g id="Capa_x0020_1">
  <metadata id="CorelCorpID_0Corel-Layer"/>
  <path class="fil0" d="M10975 12734c-46,-33 -107,-159 -287,-144 -65,5 -114,31 -151,63 -51,44 -49,79 -85,135 -214,-79 -386,5 -416,218 -205,-5 -329,132 -297,338 -140,15 -248,128 -245,274 2,91 28,138 68,195l88 106c21,21 17,16 32,37 -17,29 -391,395 -418,420 -62,58 -146,133 -186,239 -146,396 199,719 543,620 156,-45 250,-161 362,-274 36,-36 72,-68 105,-103 60,37 112,87 169,132 131,102 159,217 229,380 14,31 31,83 52,101 32,26 87,23 113,-3 52,-51 -17,-161 -41,-221 -122,-299 -144,-289 -364,-476 -20,-17 -32,-24 -44,-38l483 -502c20,99 -13,200 51,279 65,81 193,38 128,-94 -36,-73 -25,-213 -2,-296 45,-162 168,-283 277,-391 26,-26 70,-53 64,-112 -15,-130 -254,-50 -376,-138 -58,-42 -119,-127 -80,-229 118,7 578,34 659,75 352,178 -8,906 19,1198 11,121 59,180 107,266 46,81 88,153 137,236 59,100 91,208 175,188 133,-31 12,-197 -17,-244 -74,-122 -241,-361 -239,-506 1,-89 46,-217 66,-307 62,-275 146,-720 -72,-903 41,-46 89,-77 138,-130 26,-28 41,-41 68,-68 34,-33 39,-44 73,-71 158,-124 239,-81 459,-101 319,-29 534,-252 629,-488 62,-156 75,-308 60,-489 -7,-79 -6,-184 -77,-205 -71,-21 -142,76 -173,107 -93,93 -186,188 -282,277 -49,46 -51,66 -196,15 -78,-27 -125,-59 -162,-115 -26,-39 -74,-142 -63,-204 4,-24 234,-247 271,-286 80,-84 287,-241 50,-295 -558,-128 -1112,221 -1075,801 14,214 81,276 -50,451 -80,108 -192,179 -276,281z"/>
  <path class="fil1" d="M11076 12864c14,34 61,86 86,119 84,109 84,143 151,152 125,17 101,54 205,-52 23,-23 28,-32 50,-51 23,-19 34,-26 55,-46 39,-37 66,-66 104,-99 86,-76 119,-114 273,-144 210,-42 421,27 640,-179 152,-143 213,-331 205,-613 -34,19 -286,290 -325,323 -119,98 -406,-46 -478,-118 -122,-123 -209,-374 -117,-477 50,-57 110,-108 164,-166 15,-16 160,-141 150,-164 -244,-65 -766,130 -776,576 -6,253 93,355 -54,584 -52,81 -164,179 -245,263 -29,31 -65,60 -87,93z"/>
  <path class="fil1" d="M10317 14034c-21,107 -113,198 -238,204 -151,8 -226,-88 -285,-161 -33,50 -95,97 -143,145l-295 298c-56,54 -90,77 -127,168 -75,179 40,331 162,377 196,74 299,-48 398,-147l907 -930 203 -246c12,-14 22,-20 36,-39 -56,28 -106,56 -162,84 -120,60 -56,24 -112,132 -60,117 -182,151 -344,115z"/>
  <path class="fil0" d="M13737 16072c-129,-149 -526,-85 -523,272 2,215 162,362 368,339 34,-4 63,-17 89,-31 40,-23 33,-23 67,-56l0 68c44,13 113,8 160,4l-2 -901 -162 -1 3 307z"/>
  <polygon class="fil0" points="7398,15971 7398,16670 7568,16669 7566,16300 7976,16300 7976,16669 8143,16669 8142,15800 7976,15799 7976,16148 7567,16150 7566,15800 7399,15799 "/>
  <path class="fil0" d="M11769 16135c45,19 91,56 133,74 85,-98 277,-130 283,74 -167,-85 -448,-35 -435,196 6,109 75,170 165,195 122,33 203,-4 275,-66l1 62 170 0c-18,-253 50,-484 -93,-611 -141,-125 -440,-53 -499,76z"/>
  <path class="fil0" d="M10112 16783l-43 119c20,20 42,29 71,34 32,5 65,4 97,-2 162,-33 194,-190 261,-350 31,-75 229,-537 231,-575l-157 0 -52 116c-15,38 -31,77 -47,115 -17,42 -29,71 -48,113l-47 107c-1,1 -2,4 -4,5 -13,-51 -175,-427 -197,-455l-173 -2c0,36 78,182 94,216l190 438c7,38 -29,87 -50,104 -35,28 -80,19 -126,18z"/>
  <path class="fil0" d="M8747 16608l1 62 174 0 -2 -663 -168 1c6,105 2,228 1,337 -1,105 -31,191 -140,193 -122,2 -149,-69 -151,-184 -2,-111 -4,-233 1,-343l-167 -2c0,144 -23,461 39,563 104,170 342,128 410,38z"/>
  <path class="fil0" d="M12665 16081l-1 -70 -165 1 1 656 166 2c-3,-108 -2,-226 0,-335 2,-106 28,-189 139,-190 113,-1 141,71 140,182 0,114 2,230 0,344l169 0c-13,-169 35,-435 -47,-563 -72,-111 -199,-137 -316,-88 -57,24 -56,45 -87,62z"/>
  <path class="fil0" d="M7973 13496c-44,16 -74,55 -50,118 19,49 69,46 133,47 160,1 1025,8 1061,-5 38,-13 68,-63 44,-118 -22,-51 -66,-46 -132,-45 -119,1 -237,0 -356,0 -89,0 -667,-8 -701,4z"/>
  <path class="fil1" d="M9982 13186c-108,25 -111,131 -45,210l387 459c75,87 190,31 200,-54 13,-102 -109,-204 -196,-307l-233 -274c-29,-29 -64,-45 -113,-34z"/>
  <path class="fil0" d="M8391 13001c-93,23 -77,153 12,167 63,10 850,4 877,-3 79,-21 90,-150 -15,-165 -66,-10 -847,-5 -874,2z"/>
  <path class="fil0" d="M9473 14563c-100,23 -188,137 -151,275 28,104 133,188 275,143 252,-79 183,-491 -124,-419z"/>
  <path class="fil1" d="M9748 13513c-72,13 -120,90 -80,168 18,35 82,96 121,149 22,29 37,44 63,73 74,83 127,198 234,178 69,-13 108,-98 71,-171 -13,-25 -43,-53 -60,-75l-251 -291c-21,-20 -59,-39 -98,-32z"/>
  <path class="fil0" d="M8398 13978c-101,21 -71,127 -33,152 42,28 173,14 232,15 76,1 441,8 488,-6 73,-23 76,-122 22,-153 -40,-23 -680,-14 -709,-8z"/>
  <path class="fil1" d="M10750 13614c-50,-53 -104,-74 -146,-169 -50,-114 -20,-160 -3,-269l-114 -113c-31,-34 -81,-98 -118,-119 -63,-36 -137,-4 -161,47 -38,80 20,128 50,165 72,89 143,166 219,256 43,51 68,83 111,126 62,63 38,74 161,75z"/>
  <path class="fil1" d="M13515 16145c-204,56 -167,444 97,385 210,-47 166,-457 -97,-385z"/>
  <path class="fil1" d="M11057 13107c-41,-32 -235,-311 -269,-335 -48,-36 -111,-33 -152,6 -100,98 28,210 75,266 52,61 57,43 149,51 55,5 145,16 197,13z"/>
  <path class="fil1" d="M12183 16403c-109,-65 -332,-30 -257,100 43,74 273,77 257,-100z"/>
  <path class="fil1" d="M9500 14714c-84,30 -43,173 55,140 89,-30 50,-178 -55,-140z"/>
  <path class="fil0" d="M9229 16093l-3 -82 -160 0 2 659 164 -1c-5,-107 -6,-255 0,-360 10,-165 134,-146 202,-155l0 -152c-81,-15 -210,39 -206,90z"/>
  <path class="fil0" d="M9719 16093l-3 -82 -160 0 2 659 164 -1c-5,-107 -6,-255 0,-360 10,-165 134,-146 202,-155l0 -152c-81,-15 -210,39 -206,90z"/>
  <polygon class="fil0" points="10862,15970 10862,16668 11031,16667 11030,16299 11440,16299 11439,16668 11607,16668 11605,15799 11440,15798 11439,16146 11030,16148 11029,15798 10863,15798 "/>
 </g>
</svg>
